<?xml version="1.0" encoding="utf-8"?>
<!-- Generator: Adobe Illustrator 26.2.1, SVG Export Plug-In . SVG Version: 6.00 Build 0)  -->
<svg version="1.1" id="Layer_1" xmlns="http://www.w3.org/2000/svg" xmlns:xlink="http://www.w3.org/1999/xlink" x="0px" y="0px"
	 width="87px" height="52px" viewBox="0 0 87 52" style="enable-background:new 0 0 87 52;" xml:space="preserve">
<style type="text/css">
	.st0{fill:#DA291C;}
	.st1{fill:#FFFFFF;}
</style>
<desc>Created with Sketch.</desc>
<g id="Logo">
	<g id="FAB-Logo" transform="translate(0.000000, 1.000000)">
		<path id="Fill-40" class="st0" d="M87,0.06L62.51,13.45h9.81c-5.07,10.83-4.01,23.52,2.75,33.36C72.15,29.34,79.3,12.43,87,0.06"
			/>
		<path id="Fill-42" class="st1" d="M3.36,50.92h0.81v-3.84H3.36V50.92z M3.25,45.94c0-0.27,0.22-0.49,0.51-0.49
			c0.29,0,0.51,0.23,0.51,0.49c0,0.27-0.22,0.5-0.51,0.5C3.47,46.43,3.25,46.2,3.25,45.94z"/>
		<path id="Fill-44" class="st1" d="M4.97,47.05h0.78v0.4c0.23-0.28,0.54-0.47,0.96-0.47c0.11,0,0.23,0.02,0.32,0.05v0.72
			c-0.09-0.02-0.23-0.06-0.4-0.06c-0.43,0-0.67,0.15-0.87,0.32v2.9H4.97V47.05z"/>
		<path id="Fill-45" class="st1" d="M7.36,50.71v-0.62c0.25,0.11,0.7,0.23,1.05,0.23c0.5,0,0.74-0.16,0.74-0.51
			c0-0.32-0.24-0.41-0.71-0.57c-0.56-0.16-1.08-0.46-1.08-1.15c0-0.76,0.55-1.1,1.37-1.1c0.4,0,0.77,0.09,0.96,0.16v0.63
			c-0.2-0.09-0.55-0.19-0.93-0.19c-0.44,0-0.65,0.16-0.65,0.44c0,0.28,0.2,0.39,0.69,0.55c0.53,0.17,1.12,0.42,1.12,1.18
			c0,0.73-0.56,1.17-1.4,1.17C8.08,50.92,7.64,50.84,7.36,50.71"/>
		<path id="Fill-46" class="st1" d="M10.65,49.81v-2.24H10.1v-0.59h0.56l0.15-1.03h0.67v1.03h0.92v0.59h-0.92v2.12
			c0,0.4,0.15,0.58,0.52,0.58c0.2,0,0.38-0.05,0.51-0.09v0.63c-0.15,0.05-0.38,0.11-0.7,0.11C11.04,50.92,10.65,50.62,10.65,49.81"
			/>
		<path id="Fill-47" class="st1" d="M17.49,49.09l-0.48-1.43c-0.11-0.33-0.25-0.74-0.31-0.98h-0.02c-0.06,0.24-0.2,0.65-0.31,0.98
			l-0.51,1.43H17.49z M16.24,45.96h0.97l1.8,4.97h-0.92l-0.39-1.16h-2.07l-0.4,1.16h-0.85L16.24,45.96z"/>
		<path id="Fill-48" class="st1" d="M21.78,48.92c0-0.77-0.23-1.35-0.96-1.35c-0.26,0-0.52,0.1-0.68,0.23v2.41
			c0.16,0.06,0.39,0.09,0.6,0.09C21.46,50.29,21.78,49.7,21.78,48.92 M19.35,50.66v-5.22h0.78v1.82c0.14-0.16,0.47-0.37,0.92-0.37
			c1.1,0,1.55,0.88,1.55,1.98c0,1.12-0.66,2.05-1.89,2.05C20.21,50.92,19.7,50.8,19.35,50.66"/>
		<path id="Fill-49" class="st1" d="M23.12,49.55v-2.57h0.78v2.44c0,0.54,0.16,0.86,0.74,0.86c0.31,0,0.59-0.14,0.78-0.27v-3.03
			h0.79v3.88h-0.78v-0.31c-0.19,0.15-0.56,0.37-1.06,0.37C23.43,50.92,23.12,50.34,23.12,49.55"/>
		<path id="Fill-50" class="st1" d="M30.4,50.24c1.29,0,1.61-0.84,1.61-1.79c0-0.96-0.3-1.82-1.56-1.82h-0.67v3.61H30.4z
			 M28.94,45.96h1.6c1.7,0,2.34,1.2,2.34,2.49c0,1.22-0.62,2.48-2.37,2.48h-1.57V45.96z"/>
		<path id="Fill-51" class="st1" d="M33.57,45.44h0.77v1.8c0.2-0.15,0.56-0.37,1.06-0.37c0.93,0,1.25,0.58,1.25,1.35v2.53h-0.79
			v-2.4c0-0.53-0.16-0.84-0.73-0.84c-0.31,0-0.59,0.14-0.77,0.27v2.98h-0.79V45.44z"/>
		<path id="Fill-52" class="st1" d="M39.33,50.07v-0.89c-0.06,0-0.2-0.01-0.31-0.01c-0.67,0-1.04,0.18-1.04,0.61
			c0,0.35,0.24,0.55,0.65,0.55C38.94,50.33,39.19,50.21,39.33,50.07 M39.44,50.49c-0.18,0.22-0.57,0.43-1.04,0.43
			c-0.75,0-1.24-0.4-1.24-1.08c0-0.79,0.69-1.17,1.78-1.17c0.13,0,0.28,0.01,0.39,0.02v-0.3c0-0.55-0.23-0.77-0.81-0.77
			c-0.41,0-0.76,0.12-1,0.22V47.2c0.28-0.11,0.68-0.21,1.14-0.21c0.93,0,1.48,0.38,1.48,1.27v1.73c0,0.24,0.11,0.32,0.29,0.32
			c0.04,0,0.1-0.01,0.15-0.02v0.55c-0.1,0.04-0.23,0.09-0.46,0.09C39.78,50.92,39.54,50.76,39.44,50.49"/>
		<path id="Fill-53" class="st1" d="M43.35,48.92c0-0.77-0.23-1.35-0.96-1.35c-0.26,0-0.52,0.1-0.68,0.23v2.41
			c0.16,0.06,0.39,0.09,0.6,0.09C43.04,50.29,43.35,49.7,43.35,48.92 M40.93,50.66v-5.22h0.78v1.82c0.14-0.16,0.47-0.37,0.92-0.37
			c1.1,0,1.55,0.88,1.55,1.98c0,1.12-0.66,2.05-1.89,2.05C41.79,50.92,41.28,50.8,40.93,50.66"/>
		<path id="Fill-54" class="st1" d="M44.8,50.92h0.81v-3.84H44.8V50.92z M44.7,45.94c0-0.27,0.22-0.49,0.51-0.49
			c0.29,0,0.51,0.23,0.51,0.49c0,0.27-0.22,0.5-0.51,0.5C44.92,46.43,44.7,46.2,44.7,45.94z"/>
		<path id="Fill-55" class="st1" d="M50.1,50.26c0.59,0,0.9-0.28,0.9-0.8c0-0.53-0.29-0.83-0.88-0.83h-0.82v1.63H50.1z M50.07,48.04
			c0.57,0,0.83-0.26,0.83-0.73c0-0.41-0.25-0.69-0.83-0.69h-0.79v1.42H50.07z M48.47,45.96h1.7c1.03,0,1.57,0.5,1.57,1.26
			c0,0.59-0.38,0.98-0.8,1.09v0.02c0.54,0.11,0.96,0.5,0.96,1.16c0,0.87-0.64,1.43-1.68,1.43h-1.75V45.96z"/>
		<path id="Fill-56" class="st1" d="M54.4,50.07v-0.89c-0.06,0-0.2-0.01-0.31-0.01c-0.67,0-1.04,0.18-1.04,0.61
			c0,0.35,0.24,0.55,0.65,0.55C54.01,50.33,54.26,50.21,54.4,50.07 M54.51,50.49c-0.18,0.22-0.57,0.43-1.04,0.43
			c-0.75,0-1.24-0.4-1.24-1.08c0-0.79,0.69-1.17,1.78-1.17c0.13,0,0.28,0.01,0.39,0.02v-0.3c0-0.55-0.23-0.77-0.81-0.77
			c-0.41,0-0.76,0.12-1,0.22V47.2c0.28-0.11,0.68-0.21,1.14-0.21c0.93,0,1.48,0.38,1.48,1.27v1.73c0,0.24,0.11,0.32,0.29,0.32
			c0.04,0,0.1-0.01,0.15-0.02v0.55c-0.1,0.04-0.23,0.09-0.46,0.09C54.85,50.92,54.61,50.76,54.51,50.49"/>
		<path id="Fill-57" class="st1" d="M56,47.05h0.77v0.31c0.2-0.15,0.56-0.37,1.06-0.37c0.93,0,1.25,0.59,1.25,1.37v2.57h-0.79v-2.44
			c0-0.54-0.16-0.86-0.73-0.86c-0.31,0-0.6,0.14-0.77,0.27v3.03H56V47.05z"/>
		<path id="Fill-58" class="st1" d="M61.82,50.38l-1.09-1.47v1.98h-0.79v-5.45h0.79v3.24l1.36-1.71h0.87l-1.44,1.76l1,1.31
			c0.12,0.17,0.23,0.24,0.4,0.24c0.02,0,0.03,0,0.09-0.01v0.61c-0.08,0.02-0.16,0.03-0.23,0.03C62.41,50.92,62.14,50.81,61.82,50.38
			"/>
		<polygon id="Fill-59" class="st1" points="0,45.96 2.91,45.96 2.91,46.64 0.84,46.64 0.84,48 2.69,48 2.69,48.65 0.84,48.65 
			0.84,50.92 0,50.92 		"/>
		<path id="Fill-60" class="st1" d="M43.33,13.42h10.5c5.98,0,9.21,2.83,9.21,7.04c0,3.41-2.08,5.49-4.34,6.11v0.09
			c2.97,0.66,5.18,2.74,5.18,6.33c0,5.05-3.81,8.01-9.79,8.01H43.33V13.42z M53.03,24.66c2.75,0,3.9-1.24,3.9-3.36
			c0-1.9-1.19-3.14-3.85-3.14H49.4v6.51H53.03z M53.16,36.25c2.7,0,4.16-1.24,4.16-3.67c0-2.48-1.37-3.76-4.12-3.76H49.4v7.44H53.16
			z"/>
		<path id="Fill-61" class="st1" d="M24.58,13.42h6.77l10.1,27.57h-6.6l-1.77-5.49H22.32l-1.86,5.49h-6.24L24.58,13.42z
			 M31.48,30.63l-2.3-7.08c-0.53-1.64-1.06-3.23-1.37-4.51h-0.09c-0.35,1.24-0.89,2.92-1.42,4.51l-2.39,7.08H31.48z"/>
		<polygon id="Fill-62" class="st1" points="0,13.42 16.95,13.42 16.95,18.42 6.08,18.42 6.08,24.84 15.76,24.84 15.76,29.44 
			6.08,29.44 6.08,40.99 0,40.99 		"/>
		<path id="Fill-63" class="st1" d="M6.6,6.7H5.74C5.5,6.7,5.3,6.62,5.13,6.45C4.96,6.27,4.87,6.07,4.87,5.83V5.29
			c0-0.24,0.08-0.45,0.25-0.61C5.3,4.51,5.5,4.42,5.74,4.42c0.24,0,0.44,0.09,0.61,0.26C6.52,4.84,6.6,5.05,6.6,5.29V6.7z
			 M5.74,3.66c-0.45,0-0.83,0.16-1.15,0.48c-0.32,0.32-0.48,0.7-0.48,1.15v0.54c0,0.45,0.16,0.84,0.48,1.16
			c0.32,0.32,0.7,0.48,1.15,0.48H6.6c-0.01,0.2-0.09,0.37-0.24,0.52C6.21,8.12,6.04,8.2,5.84,8.2H4.98c-0.06,0-0.09,0.03-0.09,0.1
			v0.57c0,0.07,0.03,0.1,0.09,0.1h0.86c0.41,0,0.77-0.15,1.07-0.46c0.3-0.3,0.45-0.66,0.45-1.08V5.29c0-0.45-0.16-0.84-0.47-1.15
			C6.57,3.82,6.19,3.66,5.74,3.66z"/>
		<path id="Fill-64" class="st1" d="M11.55,1.94h-0.56c-0.06,0-0.09,0.03-0.09,0.09v3.91c0,0.2-0.04,0.35-0.13,0.43
			c-0.09,0.08-0.23,0.12-0.43,0.13h-2.2c-0.06,0-0.09,0.03-0.09,0.1v0.56c0,0.06,0.03,0.09,0.09,0.09h2.19
			c0.41,0,0.73-0.12,0.96-0.35c0.23-0.23,0.35-0.55,0.35-0.96V2.04C11.65,1.97,11.61,1.94,11.55,1.94"/>
		<path id="Fill-65" class="st1" d="M9.16,2.63c-0.06,0-0.08,0.03-0.08,0.1V6.3c0,0.06,0.03,0.1,0.08,0.1h0.51
			c0.06,0,0.09-0.03,0.09-0.1V2.72c0-0.06-0.03-0.1-0.09-0.1H9.16z"/>
		<path id="Fill-66" class="st1" d="M8.81,2.11h1.39c0.05,0,0.08-0.02,0.08-0.07V1.82c0-0.05-0.03-0.07-0.08-0.07H9.4V1.34
			c0-0.06,0.02-0.12,0.07-0.16c0.05-0.04,0.1-0.07,0.17-0.07c0.11,0,0.18,0.05,0.22,0.14l0.04,0.1c0.01,0.02,0.02,0.03,0.04,0.04
			c0.01,0,0.02,0.01,0.03,0.01c0.01,0,0.02,0,0.03-0.01l0.21-0.09c0.03-0.02,0.05-0.04,0.05-0.06c0-0.01,0-0.02-0.01-0.03l-0.04-0.1
			c-0.11-0.25-0.3-0.37-0.57-0.37c-0.17,0-0.32,0.06-0.44,0.18C9.08,1.04,9.02,1.18,9.02,1.34v0.41H8.81
			c-0.05,0-0.08,0.03-0.08,0.07v0.22C8.73,2.09,8.76,2.11,8.81,2.11"/>
		<path id="Fill-67" class="st1" d="M13.1,1.94h-0.51c-0.06,0-0.09,0.03-0.09,0.1v5.12c0,0.06,0.03,0.09,0.09,0.09h0.51
			c0.06,0,0.08-0.03,0.08-0.09V2.04C13.19,1.97,13.16,1.94,13.1,1.94"/>
		<path id="Fill-68" class="st1" d="M18.89,8.96h-0.48c-0.06,0-0.09,0.03-0.09,0.09v0.51c0,0.06,0.03,0.09,0.09,0.09h0.48
			c0.06,0,0.09-0.03,0.09-0.09V9.05C18.98,8.99,18.95,8.96,18.89,8.96"/>
		<path id="Fill-69" class="st1" d="M17.69,8.96h-0.48c-0.06,0-0.09,0.03-0.09,0.09v0.51c0,0.06,0.03,0.09,0.09,0.09h0.48
			c0.06,0,0.09-0.03,0.09-0.09V9.05C17.78,8.99,17.75,8.96,17.69,8.96"/>
		<path id="Fill-70" class="st1" d="M28.48,8.11H28c-0.06,0-0.09,0.03-0.09,0.09V8.7c0,0.06,0.03,0.09,0.09,0.09h0.48
			c0.06,0,0.09-0.03,0.09-0.09V8.19C28.57,8.14,28.54,8.11,28.48,8.11"/>
		<path id="Fill-71" class="st1" d="M33.67,6.02c0,0.21-0.04,0.36-0.13,0.44C33.45,6.56,33.3,6.6,33.1,6.6h-2.08V5.37
			c0.23-0.27,0.54-0.51,0.93-0.72c0.39-0.22,0.69-0.32,0.91-0.32c0.32,0,0.55,0.13,0.68,0.39c0.09,0.17,0.13,0.37,0.13,0.62V6.02z
			 M32.85,3.56c-0.5,0-1.12,0.28-1.83,0.84V2.04c0-0.07-0.03-0.1-0.1-0.1h-0.57c-0.06,0-0.09,0.03-0.09,0.1V6.6h-0.62H29.4h-0.28
			c-0.17,0-0.28-0.02-0.33-0.07c-0.02-0.02-0.02-0.06-0.02-0.1V3.8c0-0.06-0.03-0.1-0.1-0.1H28.1c-0.06,0-0.09,0.03-0.09,0.1v2.54
			c0,0.1-0.02,0.17-0.06,0.21c-0.04,0.04-0.1,0.06-0.19,0.06h-0.99h-4.16h-0.67V4.87c0-0.36-0.13-0.67-0.38-0.93
			c-0.25-0.26-0.56-0.39-0.92-0.39c-0.36,0-0.66,0.13-0.92,0.39c-0.25,0.26-0.38,0.57-0.38,0.93v2.64h-2.1
			c-0.24,0-0.46-0.09-0.64-0.27c-0.18-0.18-0.26-0.39-0.26-0.65c0-0.18,0.05-0.34,0.14-0.49c0.09-0.15,0.22-0.27,0.37-0.35
			l0.25-0.13c0.04-0.02,0.06-0.04,0.06-0.07c0-0.02-0.01-0.03-0.02-0.05l-0.26-0.51c-0.01-0.02-0.03-0.04-0.06-0.05
			c-0.01,0-0.02-0.01-0.03-0.01c-0.01,0-0.03,0-0.04,0.01l-0.25,0.13c-0.28,0.15-0.5,0.36-0.67,0.63c-0.17,0.28-0.25,0.58-0.25,0.89
			c0,0.47,0.16,0.86,0.48,1.19c0.32,0.33,0.71,0.49,1.15,0.49h2.5c0.1,0,0.19-0.04,0.27-0.11C20.06,8.09,20.09,8,20.09,7.9V4.87
			c0-0.15,0.05-0.28,0.16-0.39c0.11-0.11,0.23-0.16,0.38-0.16c0.15,0,0.28,0.05,0.38,0.16c0.11,0.11,0.16,0.24,0.16,0.39v2.11
			c0,0.11,0.04,0.2,0.11,0.27c0.07,0.08,0.16,0.11,0.27,0.11h1.05h4.16h0.98c0.28,0,0.52-0.08,0.7-0.25
			c0.2,0.17,0.47,0.25,0.81,0.25h0.14h0.24h3.45c0.42,0,0.74-0.12,0.97-0.36c0.23-0.24,0.35-0.56,0.35-0.99V5.33
			c0-0.53-0.14-0.96-0.43-1.29C33.7,3.72,33.32,3.56,32.85,3.56z"/>
		<path id="Fill-72" class="st1" d="M32.28,2.97h0.48c0.06,0,0.09-0.03,0.09-0.09V2.37c0-0.06-0.03-0.09-0.09-0.09h-0.48
			c-0.06,0-0.09,0.03-0.09,0.09v0.51C32.2,2.94,32.23,2.97,32.28,2.97"/>
		<path id="Fill-73" class="st1" d="M37.59,6.7h-0.86c-0.24,0-0.44-0.09-0.61-0.26c-0.17-0.17-0.25-0.38-0.25-0.61V5.29
			c0-0.24,0.08-0.45,0.25-0.61c0.17-0.17,0.37-0.26,0.61-0.26c0.24,0,0.44,0.09,0.61,0.26c0.17,0.17,0.25,0.37,0.25,0.61V6.7z
			 M43.58,3.8h-0.57c-0.06,0-0.09,0.03-0.09,0.1v2.54c0,0.1-0.02,0.17-0.06,0.21c-0.04,0.04-0.11,0.06-0.21,0.06h-0.91h-2.71h-0.67
			V5.29c0-0.45-0.16-0.84-0.48-1.15c-0.32-0.32-0.7-0.48-1.15-0.48c-0.45,0-0.83,0.16-1.14,0.48c-0.32,0.32-0.48,0.7-0.48,1.15v0.54
			c0,0.45,0.16,0.84,0.48,1.16c0.32,0.32,0.7,0.48,1.14,0.48h0.86c-0.01,0.2-0.09,0.37-0.24,0.52C37.2,8.12,37.03,8.2,36.83,8.2
			h-0.86c-0.06,0-0.09,0.03-0.09,0.1v0.57c0,0.07,0.03,0.1,0.09,0.1h0.86c0.4,0,0.75-0.15,1.05-0.44c0.3-0.29,0.45-0.65,0.47-1.06
			h0.67h2.71h0.91c0.31,0,0.56-0.09,0.75-0.28c0.19-0.19,0.28-0.44,0.28-0.75V3.89C43.67,3.83,43.64,3.8,43.58,3.8z"/>
		<path id="Fill-74" class="st1" d="M43.04,8.11h-0.48c-0.06,0-0.09,0.03-0.09,0.09V8.7c0,0.06,0.03,0.09,0.09,0.09h0.48
			c0.06,0,0.09-0.03,0.09-0.09V8.19C43.13,8.14,43.1,8.11,43.04,8.11"/>
		<path id="Fill-75" class="st1" d="M45.65,1.06h-0.8V0.65c0-0.07,0.02-0.12,0.07-0.17c0.05-0.04,0.1-0.07,0.17-0.07
			c0.1,0,0.18,0.05,0.22,0.14l0.05,0.1c0.01,0.03,0.04,0.05,0.06,0.05c0.01,0,0.02,0,0.04-0.01l0.21-0.08
			c0.02-0.01,0.03-0.02,0.04-0.04c0-0.01,0.01-0.02,0.01-0.03c0-0.01,0-0.02-0.01-0.03l-0.04-0.1c-0.11-0.24-0.3-0.36-0.57-0.36
			c-0.17,0-0.32,0.06-0.44,0.17c-0.12,0.12-0.18,0.26-0.18,0.42v0.41h-0.21c-0.05,0-0.08,0.02-0.08,0.07v0.22
			c0,0.05,0.03,0.07,0.08,0.07h1.39c0.05,0,0.07-0.02,0.07-0.07V1.14C45.73,1.09,45.7,1.06,45.65,1.06"/>
		<path id="Fill-76" class="st1" d="M45.13,1.94h-0.51c-0.06,0-0.09,0.03-0.09,0.09v5.12c0,0.06,0.03,0.09,0.09,0.09h0.51
			c0.06,0,0.08-0.03,0.08-0.09V2.04C45.21,1.97,45.18,1.94,45.13,1.94"/>
		<path id="Fill-77" class="st1" d="M49.57,4.68h1.39c0.05,0,0.07-0.02,0.07-0.07V4.39c0-0.05-0.02-0.07-0.07-0.07h-0.8v-0.4
			c0-0.06,0.02-0.12,0.07-0.17c0.05-0.04,0.1-0.07,0.17-0.07c0.11,0,0.18,0.05,0.22,0.14l0.04,0.1c0.01,0.03,0.04,0.04,0.07,0.04
			c0.01,0,0.02,0,0.04-0.01l0.21-0.08c0.01-0.01,0.03-0.02,0.04-0.04c0-0.01,0-0.02,0-0.03c0-0.01,0-0.02,0-0.03l-0.04-0.1
			c-0.11-0.24-0.3-0.36-0.57-0.36c-0.17,0-0.32,0.06-0.44,0.17c-0.12,0.12-0.18,0.26-0.18,0.42v0.4h-0.22
			c-0.05,0-0.08,0.03-0.08,0.07v0.22C49.49,4.66,49.52,4.68,49.57,4.68"/>
		<path id="Fill-78" class="st1" d="M59.68,2.96h0.48c0.06,0,0.09-0.03,0.09-0.09V2.37c0-0.06-0.03-0.09-0.09-0.09h-0.48
			c-0.06,0-0.09,0.03-0.09,0.09v0.51C59.6,2.94,59.63,2.96,59.68,2.96"/>
		<path id="Fill-79" class="st1" d="M62.93,3.67h-0.57c-0.06,0-0.09,0.03-0.09,0.09v2.48c0,0.1-0.02,0.17-0.06,0.21
			C62.17,6.49,62.1,6.5,62,6.5h-0.88h-0.24h-0.3c-0.16,0-0.27-0.03-0.31-0.08c-0.02-0.02-0.03-0.05-0.03-0.1V3.76
			c0-0.06-0.03-0.1-0.09-0.1h-0.57c-0.06,0-0.09,0.03-0.09,0.1v2.48c0,0.1-0.02,0.17-0.06,0.21c-0.04,0.04-0.1,0.06-0.19,0.06h-5.69
			h-0.24h-0.3c-0.16,0-0.27-0.03-0.32-0.08c-0.02-0.01-0.03-0.05-0.03-0.1v-4.3c0-0.06-0.03-0.09-0.09-0.09H52
			c-0.06,0-0.1,0.03-0.1,0.09v4.2c0,0.11-0.02,0.17-0.06,0.21c-0.04,0.04-0.1,0.06-0.2,0.06h-2.39c-0.25,0-0.46-0.09-0.63-0.26
			c-0.17-0.18-0.26-0.39-0.26-0.63c0-0.17,0.05-0.33,0.14-0.48c0.09-0.15,0.22-0.26,0.37-0.34l0.25-0.13
			c0.04-0.02,0.06-0.04,0.06-0.07c0-0.02,0-0.03-0.01-0.05l-0.26-0.5c-0.01-0.03-0.03-0.04-0.06-0.05
			c-0.01-0.01-0.02-0.01-0.03-0.01c-0.01,0-0.03,0.01-0.04,0.01l-0.26,0.13c-0.28,0.14-0.5,0.35-0.67,0.62
			c-0.17,0.27-0.25,0.56-0.25,0.88c0,0.46,0.16,0.84,0.48,1.16c0.32,0.32,0.71,0.48,1.17,0.48h2.38c0.29,0,0.52-0.08,0.71-0.25
			c0.2,0.16,0.47,0.25,0.81,0.25h0.14h0.24h5.65h0.02c0.29,0,0.52-0.08,0.71-0.25c0.2,0.16,0.47,0.25,0.81,0.25h0.14h0.24H62
			c0.31,0,0.56-0.09,0.74-0.27c0.18-0.19,0.28-0.43,0.28-0.74V3.76C63.02,3.7,62.99,3.67,62.93,3.67"/>
		<path id="Fill-80" class="st1" d="M3.16,1.94H2.6c-0.06,0-0.1,0.03-0.1,0.09v4.91c0,0.25-0.09,0.47-0.26,0.64
			C2.08,7.77,1.87,7.86,1.63,7.86C1.38,7.86,1.18,7.77,1,7.59C0.83,7.41,0.74,7.2,0.74,6.95V5.14c0-0.07-0.03-0.1-0.09-0.1H0.1
			C0.03,5.04,0,5.07,0,5.14v1.81C0,7.41,0.16,7.8,0.48,8.13c0.32,0.33,0.7,0.49,1.15,0.49c0.45,0,0.83-0.16,1.15-0.49
			C3.1,7.8,3.25,7.41,3.25,6.95V2.04C3.25,1.97,3.22,1.94,3.16,1.94"/>
		<path id="Fill-81" class="st1" d="M62.39,8.11h-0.48c-0.06,0-0.09,0.03-0.09,0.09V8.7c0,0.06,0.03,0.09,0.09,0.09h0.48
			c0.06,0,0.09-0.03,0.09-0.09V8.19C62.48,8.14,62.45,8.11,62.39,8.11"/>
	</g>
</g>
</svg>
